<svg width="100" height="50" viewBox="0 0 100 50" fill="none" xmlns="http://www.w3.org/2000/svg">
<g clip-path="url(#clip0_1_2)">
<rect width="100" height="50" fill="white"/>
<mask id="path-1-outside-1_1_2" maskUnits="userSpaceOnUse" x="18" y="14" width="64" height="17" fill="black">
<rect fill="white" x="18" y="14" width="64" height="17"/>
<path d="M22.4292 18.0091V21.9525H23.3493C25.0817 21.9525 25.9479 21.2851 25.9479 19.9505C25.9479 19.2831 25.7659 18.7944 25.4019 18.4843C25.0446 18.1675 24.4784 18.0091 23.7032 18.0091H22.4292ZM23.8549 15.6936C25.4727 15.6936 26.6995 16.0442 27.5353 16.7452C28.378 17.4395 28.7993 18.4877 28.7993 19.8898C28.7993 21.2919 28.351 22.3738 27.4545 23.1355C26.5647 23.8905 25.2907 24.2679 23.6324 24.2679H22.4292V29H19.6082V15.6936H23.8549ZM39.5177 29H31.3074V15.6936H34.1284V26.6744H39.5177V29ZM49.667 15.6936H52.4881V24.3084C52.5015 25.7846 52.0061 26.971 51.0017 27.8675C49.9973 28.7641 48.6525 29.2022 46.9673 29.182C45.2484 29.182 43.9171 28.7438 42.9734 27.8675C42.0364 26.9845 41.5679 25.7846 41.5679 24.2679V15.6936H44.3789V23.8433C44.3789 24.8814 44.5844 25.6363 44.9956 26.1082C45.4136 26.58 46.0876 26.816 47.0179 26.816C47.9549 26.816 48.6289 26.5767 49.0401 26.0981C49.4581 25.6195 49.667 24.8611 49.667 23.8231V15.6936ZM67.3284 22.7007C67.3284 22.276 67.3284 21.939 67.3284 21.6896C67.3352 21.4334 67.3824 20.3987 67.47 18.5854H67.3891L63.9513 29H61.3729L58.1677 18.5652H58.0868C58.2014 20.756 58.2587 22.1716 58.2587 22.8119V29H55.741V15.6936H59.5731L62.7278 25.8655H62.7784L66.1151 15.6936H69.9573V29H67.3284V22.7007ZM80.9733 26.6744V29H73.3191V15.6936H80.9733V18.0091H76.1401V20.9312H80.6396V23.2366H76.1401V26.6744H80.9733Z"/>
</mask>
<path d="M22.4292 18.0091V21.9525H23.3493C25.0817 21.9525 25.9479 21.2851 25.9479 19.9505C25.9479 19.2831 25.7659 18.7944 25.4019 18.4843C25.0446 18.1675 24.4784 18.0091 23.7032 18.0091H22.4292ZM23.8549 15.6936C25.4727 15.6936 26.6995 16.0442 27.5353 16.7452C28.378 17.4395 28.7993 18.4877 28.7993 19.8898C28.7993 21.2919 28.351 22.3738 27.4545 23.1355C26.5647 23.8905 25.2907 24.2679 23.6324 24.2679H22.4292V29H19.6082V15.6936H23.8549ZM39.5177 29H31.3074V15.6936H34.1284V26.6744H39.5177V29ZM49.667 15.6936H52.4881V24.3084C52.5015 25.7846 52.0061 26.971 51.0017 27.8675C49.9973 28.7641 48.6525 29.2022 46.9673 29.182C45.2484 29.182 43.9171 28.7438 42.9734 27.8675C42.0364 26.9845 41.5679 25.7846 41.5679 24.2679V15.6936H44.3789V23.8433C44.3789 24.8814 44.5844 25.6363 44.9956 26.1082C45.4136 26.58 46.0876 26.816 47.0179 26.816C47.9549 26.816 48.6289 26.5767 49.0401 26.0981C49.4581 25.6195 49.667 24.8611 49.667 23.8231V15.6936ZM67.3284 22.7007C67.3284 22.276 67.3284 21.939 67.3284 21.6896C67.3352 21.4334 67.3824 20.3987 67.47 18.5854H67.3891L63.9513 29H61.3729L58.1677 18.5652H58.0868C58.2014 20.756 58.2587 22.1716 58.2587 22.8119V29H55.741V15.6936H59.5731L62.7278 25.8655H62.7784L66.1151 15.6936H69.9573V29H67.3284V22.7007ZM80.9733 26.6744V29H73.3191V15.6936H80.9733V18.0091H76.1401V20.9312H80.6396V23.2366H76.1401V26.6744H80.9733Z" fill="white" fill-opacity="0.55"/>
<path d="M22.4292 18.0091V17.0091H21.4292V18.0091H22.4292ZM22.4292 21.9525H21.4292V22.9525H22.4292V21.9525ZM25.4019 18.4843L24.7384 19.2325L24.7458 19.2391L24.7534 19.2456L25.4019 18.4843ZM27.5353 16.7452L26.8927 17.5114L26.8994 17.5169L27.5353 16.7452ZM27.4545 23.1355L28.1014 23.898L28.1019 23.8976L27.4545 23.1355ZM22.4292 24.2679V23.2679H21.4292V24.2679H22.4292ZM22.4292 29V30H23.4292V29H22.4292ZM19.6082 29H18.6082V30H19.6082V29ZM19.6082 15.6936V14.6936H18.6082V15.6936H19.6082ZM21.4292 18.0091V21.9525H23.4292V18.0091H21.4292ZM22.4292 22.9525H23.3493V20.9525H22.4292V22.9525ZM23.3493 22.9525C24.316 22.9525 25.2245 22.7711 25.9085 22.2441C26.642 21.6791 26.9479 20.8519 26.9479 19.9505H24.9479C24.9479 20.3837 24.8207 20.5575 24.6879 20.6598C24.5057 20.8002 24.115 20.9525 23.3493 20.9525V22.9525ZM26.9479 19.9505C26.9479 19.111 26.7154 18.2896 26.0503 17.7231L24.7534 19.2456C24.8164 19.2992 24.9479 19.4552 24.9479 19.9505H26.9479ZM26.0654 17.7361C25.4407 17.1822 24.5796 17.0091 23.7032 17.0091V19.0091C24.3772 19.0091 24.6486 19.1528 24.7384 19.2325L26.0654 17.7361ZM23.7032 17.0091H22.4292V19.0091H23.7032V17.0091ZM23.8549 16.6936C25.3475 16.6936 26.3062 17.0195 26.8927 17.5114L28.178 15.979C27.0927 15.0688 25.5978 14.6936 23.8549 14.6936V16.6936ZM26.8994 17.5169C27.449 17.9698 27.7993 18.6947 27.7993 19.8898H29.7993C29.7993 18.2807 29.3069 16.9092 28.1713 15.9734L26.8994 17.5169ZM27.7993 19.8898C27.7993 21.0605 27.4366 21.8385 26.807 22.3734L28.1019 23.8976C29.2654 22.9091 29.7993 21.5233 29.7993 19.8898H27.7993ZM26.8075 22.373C26.1614 22.9212 25.152 23.2679 23.6324 23.2679V25.2679C25.4293 25.2679 26.9679 24.8598 28.1014 23.898L26.8075 22.373ZM23.6324 23.2679H22.4292V25.2679H23.6324V23.2679ZM21.4292 24.2679V29H23.4292V24.2679H21.4292ZM22.4292 28H19.6082V30H22.4292V28ZM20.6082 29V15.6936H18.6082V29H20.6082ZM19.6082 16.6936H23.8549V14.6936H19.6082V16.6936ZM39.5177 29V30H40.5177V29H39.5177ZM31.3074 29H30.3074V30H31.3074V29ZM31.3074 15.6936V14.6936H30.3074V15.6936H31.3074ZM34.1284 15.6936H35.1284V14.6936H34.1284V15.6936ZM34.1284 26.6744H33.1284V27.6744H34.1284V26.6744ZM39.5177 26.6744H40.5177V25.6744H39.5177V26.6744ZM39.5177 28H31.3074V30H39.5177V28ZM32.3074 29V15.6936H30.3074V29H32.3074ZM31.3074 16.6936H34.1284V14.6936H31.3074V16.6936ZM33.1284 15.6936V26.6744H35.1284V15.6936H33.1284ZM34.1284 27.6744H39.5177V25.6744H34.1284V27.6744ZM38.5177 26.6744V29H40.5177V26.6744H38.5177ZM49.667 15.6936V14.6936H48.667V15.6936H49.667ZM52.4881 15.6936H53.4881V14.6936H52.4881V15.6936ZM52.4881 24.3084L51.488 24.3084L51.4881 24.3175L52.4881 24.3084ZM51.0017 27.8675L51.6676 28.6136L51.6676 28.6136L51.0017 27.8675ZM46.9673 29.182L46.9793 28.182H46.9673V29.182ZM42.9734 27.8675L42.2875 28.5953L42.2929 28.6003L42.9734 27.8675ZM41.5679 15.6936V14.6936H40.5679V15.6936H41.5679ZM44.3789 15.6936H45.3789V14.6936H44.3789V15.6936ZM44.9956 26.1082L44.2417 26.7652L44.247 26.7712L44.9956 26.1082ZM49.0401 26.0981L48.2869 25.4403L48.2816 25.4464L49.0401 26.0981ZM49.667 16.6936H52.4881V14.6936H49.667V16.6936ZM51.4881 15.6936V24.3084H53.4881V15.6936H51.4881ZM51.4881 24.3175C51.4992 25.5369 51.103 26.4367 50.3358 27.1215L51.6676 28.6136C52.9092 27.5053 53.5038 26.0323 53.488 24.2993L51.4881 24.3175ZM50.3358 27.1215C49.5614 27.8127 48.4803 28.2001 46.9793 28.1821L46.9553 30.1819C48.8248 30.2044 50.4332 29.7154 51.6676 28.6136L50.3358 27.1215ZM46.9673 28.182C45.4145 28.182 44.3578 27.7884 43.6538 27.1347L42.2929 28.6003C43.4764 29.6993 45.0823 30.182 46.9673 30.182V28.182ZM43.6592 27.1398C42.9585 26.4794 42.5679 25.5624 42.5679 24.2679H40.5679C40.5679 26.0068 41.1143 27.4896 42.2875 28.5953L43.6592 27.1398ZM42.5679 24.2679V15.6936H40.5679V24.2679H42.5679ZM41.5679 16.6936H44.3789V14.6936H41.5679V16.6936ZM43.3789 15.6936V23.8433H45.3789V15.6936H43.3789ZM43.3789 23.8433C43.3789 24.9751 43.5961 26.0243 44.2417 26.7652L45.7495 25.4512C45.5728 25.2484 45.3789 24.7876 45.3789 23.8433H43.3789ZM44.247 26.7712C44.9303 27.5427 45.9395 27.816 47.0179 27.816V25.816C46.2358 25.816 45.8968 25.6174 45.7442 25.4452L44.247 26.7712ZM47.0179 27.816C48.1027 27.816 49.1204 27.5391 49.7986 26.7497L48.2816 25.4464C48.1374 25.6142 47.8071 25.816 47.0179 25.816V27.816ZM49.7934 26.7558C50.4445 26.0102 50.667 24.9596 50.667 23.8231H48.667C48.667 24.7627 48.4716 25.2288 48.2869 25.4403L49.7934 26.7558ZM50.667 23.8231V15.6936H48.667V23.8231H50.667ZM67.3284 21.6896L66.3288 21.6633L66.3284 21.6764V21.6896H67.3284ZM67.47 18.5854L68.4688 18.6337L68.5195 17.5854H67.47V18.5854ZM67.3891 18.5854V17.5854H66.6661L66.4395 18.272L67.3891 18.5854ZM63.9513 29V30H64.6743L64.9009 29.3135L63.9513 29ZM61.3729 29L60.417 29.2936L60.634 30H61.3729V29ZM58.1677 18.5652L59.1236 18.2716L58.9066 17.5652H58.1677V18.5652ZM58.0868 18.5652V17.5652H57.0331L57.0881 18.6175L58.0868 18.5652ZM58.2587 29V30H59.2587V29H58.2587ZM55.741 29H54.741V30H55.741V29ZM55.741 15.6936V14.6936H54.741V15.6936H55.741ZM59.5731 15.6936L60.5282 15.3974L60.31 14.6936H59.5731V15.6936ZM62.7278 25.8655L61.7727 26.1617L61.991 26.8655H62.7278V25.8655ZM62.7784 25.8655V26.8655H63.5028L63.7286 26.1772L62.7784 25.8655ZM66.1151 15.6936V14.6936H65.3907L65.1649 15.3819L66.1151 15.6936ZM69.9573 15.6936H70.9573V14.6936H69.9573V15.6936ZM69.9573 29V30H70.9573V29H69.9573ZM67.3284 29H66.3284V30H67.3284V29ZM68.3284 22.7007C68.3284 22.6999 68.3284 22.699 68.3284 22.6982C68.3284 22.6974 68.3284 22.6966 68.3284 22.6957C68.3284 22.6949 68.3284 22.6941 68.3284 22.6933C68.3284 22.6924 68.3284 22.6916 68.3284 22.6908C68.3284 22.6899 68.3284 22.6891 68.3284 22.6883C68.3284 22.6875 68.3284 22.6866 68.3284 22.6858C68.3284 22.685 68.3284 22.6842 68.3284 22.6833C68.3284 22.6825 68.3284 22.6817 68.3284 22.6809C68.3284 22.68 68.3284 22.6792 68.3284 22.6784C68.3284 22.6776 68.3284 22.6767 68.3284 22.6759C68.3284 22.6751 68.3284 22.6743 68.3284 22.6735C68.3284 22.6726 68.3284 22.6718 68.3284 22.671C68.3284 22.6702 68.3284 22.6693 68.3284 22.6685C68.3284 22.6677 68.3284 22.6669 68.3284 22.6661C68.3284 22.6652 68.3284 22.6644 68.3284 22.6636C68.3284 22.6628 68.3284 22.662 68.3284 22.6612C68.3284 22.6603 68.3284 22.6595 68.3284 22.6587C68.3284 22.6579 68.3284 22.6571 68.3284 22.6562C68.3284 22.6554 68.3284 22.6546 68.3284 22.6538C68.3284 22.653 68.3284 22.6522 68.3284 22.6513C68.3284 22.6505 68.3284 22.6497 68.3284 22.6489C68.3284 22.6481 68.3284 22.6473 68.3284 22.6465C68.3284 22.6456 68.3284 22.6448 68.3284 22.644C68.3284 22.6432 68.3284 22.6424 68.3284 22.6416C68.3284 22.6408 68.3284 22.6399 68.3284 22.6391C68.3284 22.6383 68.3284 22.6375 68.3284 22.6367C68.3284 22.6359 68.3284 22.6351 68.3284 22.6343C68.3284 22.6334 68.3284 22.6326 68.3284 22.6318C68.3284 22.631 68.3284 22.6302 68.3284 22.6294C68.3284 22.6286 68.3284 22.6278 68.3284 22.627C68.3284 22.6262 68.3284 22.6253 68.3284 22.6245C68.3284 22.6237 68.3284 22.6229 68.3284 22.6221C68.3284 22.6213 68.3284 22.6205 68.3284 22.6197C68.3284 22.6189 68.3284 22.6181 68.3284 22.6173C68.3284 22.6165 68.3284 22.6157 68.3284 22.6148C68.3284 22.614 68.3284 22.6132 68.3284 22.6124C68.3284 22.6116 68.3284 22.6108 68.3284 22.61C68.3284 22.6092 68.3284 22.6084 68.3284 22.6076C68.3284 22.6068 68.3284 22.606 68.3284 22.6052C68.3284 22.6044 68.3284 22.6036 68.3284 22.6028C68.3284 22.602 68.3284 22.6012 68.3284 22.6004C68.3284 22.5996 68.3284 22.5988 68.3284 22.598C68.3284 22.5972 68.3284 22.5964 68.3284 22.5956C68.3284 22.5948 68.3284 22.594 68.3284 22.5932C68.3284 22.5924 68.3284 22.5916 68.3284 22.5908C68.3284 22.59 68.3284 22.5892 68.3284 22.5884C68.3284 22.5876 68.3284 22.5868 68.3284 22.586C68.3284 22.5852 68.3284 22.5844 68.3284 22.5836C68.3284 22.5828 68.3284 22.582 68.3284 22.5812C68.3284 22.5804 68.3284 22.5796 68.3284 22.5788C68.3284 22.578 68.3284 22.5772 68.3284 22.5764C68.3284 22.5756 68.3284 22.5748 68.3284 22.574C68.3284 22.5732 68.3284 22.5724 68.3284 22.5716C68.3284 22.5709 68.3284 22.5701 68.3284 22.5693C68.3284 22.5685 68.3284 22.5677 68.3284 22.5669C68.3284 22.5661 68.3284 22.5653 68.3284 22.5645C68.3284 22.5637 68.3284 22.5629 68.3284 22.5621C68.3284 22.5613 68.3284 22.5605 68.3284 22.5598C68.3284 22.559 68.3284 22.5582 68.3284 22.5574C68.3284 22.5566 68.3284 22.5558 68.3284 22.555C68.3284 22.5542 68.3284 22.5534 68.3284 22.5527C68.3284 22.5519 68.3284 22.5511 68.3284 22.5503C68.3284 22.5495 68.3284 22.5487 68.3284 22.5479C68.3284 22.5471 68.3284 22.5464 68.3284 22.5456C68.3284 22.5448 68.3284 22.544 68.3284 22.5432C68.3284 22.5424 68.3284 22.5416 68.3284 22.5408C68.3284 22.5401 68.3284 22.5393 68.3284 22.5385C68.3284 22.5377 68.3284 22.5369 68.3284 22.5361C68.3284 22.5354 68.3284 22.5346 68.3284 22.5338C68.3284 22.533 68.3284 22.5322 68.3284 22.5314C68.3284 22.5307 68.3284 22.5299 68.3284 22.5291C68.3284 22.5283 68.3284 22.5275 68.3284 22.5267C68.3284 22.526 68.3284 22.5252 68.3284 22.5244C68.3284 22.5236 68.3284 22.5228 68.3284 22.5221C68.3284 22.5213 68.3284 22.5205 68.3284 22.5197C68.3284 22.5189 68.3284 22.5182 68.3284 22.5174C68.3284 22.5166 68.3284 22.5158 68.3284 22.5151C68.3284 22.5143 68.3284 22.5135 68.3284 22.5127C68.3284 22.5119 68.3284 22.5112 68.3284 22.5104C68.3284 22.5096 68.3284 22.5088 68.3284 22.5081C68.3284 22.5073 68.3284 22.5065 68.3284 22.5057C68.3284 22.505 68.3284 22.5042 68.3284 22.5034C68.3284 22.5026 68.3284 22.5019 68.3284 22.5011C68.3284 22.5003 68.3284 22.4995 68.3284 22.4988C68.3284 22.498 68.3284 22.4972 68.3284 22.4964C68.3284 22.4957 68.3284 22.4949 68.3284 22.4941C68.3284 22.4934 68.3284 22.4926 68.3284 22.4918C68.3284 22.491 68.3284 22.4903 68.3284 22.4895C68.3284 22.4887 68.3284 22.488 68.3284 22.4872C68.3284 22.4864 68.3284 22.4857 68.3284 22.4849C68.3284 22.4841 68.3284 22.4833 68.3284 22.4826C68.3284 22.4818 68.3284 22.481 68.3284 22.4803C68.3284 22.4795 68.3284 22.4787 68.3284 22.478C68.3284 22.4772 68.3284 22.4764 68.3284 22.4757C68.3284 22.4749 68.3284 22.4741 68.3284 22.4734C68.3284 22.4726 68.3284 22.4718 68.3284 22.4711C68.3284 22.4703 68.3284 22.4695 68.3284 22.4688C68.3284 22.468 68.3284 22.4672 68.3284 22.4665C68.3284 22.4657 68.3284 22.465 68.3284 22.4642C68.3284 22.4634 68.3284 22.4627 68.3284 22.4619C68.3284 22.4611 68.3284 22.4604 68.3284 22.4596C68.3284 22.4589 68.3284 22.4581 68.3284 22.4573C68.3284 22.4566 68.3284 22.4558 68.3284 22.4551C68.3284 22.4543 68.3284 22.4535 68.3284 22.4528C68.3284 22.452 68.3284 22.4513 68.3284 22.4505C68.3284 22.4497 68.3284 22.449 68.3284 22.4482C68.3284 22.4475 68.3284 22.4467 68.3284 22.4459C68.3284 22.4452 68.3284 22.4444 68.3284 22.4437C68.3284 22.4429 68.3284 22.4422 68.3284 22.4414C68.3284 22.4406 68.3284 22.4399 68.3284 22.4391C68.3284 22.4384 68.3284 22.4376 68.3284 22.4369C68.3284 22.4361 68.3284 22.4354 68.3284 22.4346C68.3284 22.4338 68.3284 22.4331 68.3284 22.4323C68.3284 22.4316 68.3284 22.4308 68.3284 22.4301C68.3284 22.4293 68.3284 22.4286 68.3284 22.4278C68.3284 22.4271 68.3284 22.4263 68.3284 22.4256C68.3284 22.4248 68.3284 22.4241 68.3284 22.4233C68.3284 22.4226 68.3284 22.4218 68.3284 22.4211C68.3284 22.4203 68.3284 22.4196 68.3284 22.4188C68.3284 22.4181 68.3284 22.4173 68.3284 22.4166C68.3284 22.4158 68.3284 22.4151 68.3284 22.4143C68.3284 22.4136 68.3284 22.4128 68.3284 22.4121C68.3284 22.4113 68.3284 22.4106 68.3284 22.4098C68.3284 22.4091 68.3284 22.4083 68.3284 22.4076C68.3284 22.4068 68.3284 22.4061 68.3284 22.4053C68.3284 22.4046 68.3284 22.4038 68.3284 22.4031C68.3284 22.4024 68.3284 22.4016 68.3284 22.4009C68.3284 22.4001 68.3284 22.3994 68.3284 22.3986C68.3284 22.3979 68.3284 22.3971 68.3284 22.3964C68.3284 22.3957 68.3284 22.3949 68.3284 22.3942C68.3284 22.3934 68.3284 22.3927 68.3284 22.3919C68.3284 22.3912 68.3284 22.3905 68.3284 22.3897C68.3284 22.389 68.3284 22.3882 68.3284 22.3875C68.3284 22.3868 68.3284 22.386 68.3284 22.3853C68.3284 22.3845 68.3284 22.3838 68.3284 22.3831C68.3284 22.3823 68.3284 22.3816 68.3284 22.3808C68.3284 22.3801 68.3284 22.3794 68.3284 22.3786C68.3284 22.3779 68.3284 22.3772 68.3284 22.3764C68.3284 22.3757 68.3284 22.3749 68.3284 22.3742C68.3284 22.3735 68.3284 22.3727 68.3284 22.372C68.3284 22.3713 68.3284 22.3705 68.3284 22.3698C68.3284 22.3691 68.3284 22.3683 68.3284 22.3676C68.3284 22.3669 68.3284 22.3661 68.3284 22.3654C68.3284 22.3647 68.3284 22.3639 68.3284 22.3632C68.3284 22.3625 68.3284 22.3617 68.3284 22.361C68.3284 22.3603 68.3284 22.3595 68.3284 22.3588C68.3284 22.3581 68.3284 22.3573 68.3284 22.3566C68.3284 22.3559 68.3284 22.3551 68.3284 22.3544C68.3284 22.3537 68.3284 22.3529 68.3284 22.3522C68.3284 22.3515 68.3284 22.3508 68.3284 22.35C68.3284 22.3493 68.3284 22.3486 68.3284 22.3478C68.3284 22.3471 68.3284 22.3464 68.3284 22.3457C68.3284 22.3449 68.3284 22.3442 68.3284 22.3435C68.3284 22.3427 68.3284 22.342 68.3284 22.3413C68.3284 22.3406 68.3284 22.3398 68.3284 22.3391C68.3284 22.3384 68.3284 22.3377 68.3284 22.3369C68.3284 22.3362 68.3284 22.3355 68.3284 22.3348C68.3284 22.334 68.3284 22.3333 68.3284 22.3326C68.3284 22.3319 68.3284 22.3311 68.3284 22.3304C68.3284 22.3297 68.3284 22.329 68.3284 22.3283C68.3284 22.3275 68.3284 22.3268 68.3284 22.3261C68.3284 22.3254 68.3284 22.3246 68.3284 22.3239C68.3284 22.3232 68.3284 22.3225 68.3284 22.3218C68.3284 22.321 68.3284 22.3203 68.3284 22.3196C68.3284 22.3189 68.3284 22.3182 68.3284 22.3174C68.3284 22.3167 68.3284 22.316 68.3284 22.3153C68.3284 22.3146 68.3284 22.3138 68.3284 22.3131C68.3284 22.3124 68.3284 22.3117 68.3284 22.311C68.3284 22.3103 68.3284 22.3095 68.3284 22.3088C68.3284 22.3081 68.3284 22.3074 68.3284 22.3067C68.3284 22.306 68.3284 22.3052 68.3284 22.3045C68.3284 22.3038 68.3284 22.3031 68.3284 22.3024C68.3284 22.3017 68.3284 22.301 68.3284 22.3002C68.3284 22.2995 68.3284 22.2988 68.3284 22.2981C68.3284 22.2974 68.3284 22.2967 68.3284 22.296C68.3284 22.2953 68.3284 22.2945 68.3284 22.2938C68.3284 22.2931 68.3284 22.2924 68.3284 22.2917C68.3284 22.291 68.3284 22.2903 68.3284 22.2896C68.3284 22.2889 68.3284 22.2881 68.3284 22.2874C68.3284 22.2867 68.3284 22.286 68.3284 22.2853C68.3284 22.2846 68.3284 22.2839 68.3284 22.2832C68.3284 22.2825 68.3284 22.2818 68.3284 22.2811C68.3284 22.2803 68.3284 22.2796 68.3284 22.2789C68.3284 22.2782 68.3284 22.2775 68.3284 22.2768C68.3284 22.2761 68.3284 22.2754 68.3284 22.2747C68.3284 22.274 68.3284 22.2733 68.3284 22.2726C68.3284 22.2719 68.3284 22.2712 68.3284 22.2705C68.3284 22.2698 68.3284 22.2691 68.3284 22.2684C68.3284 22.2676 68.3284 22.2669 68.3284 22.2662C68.3284 22.2655 68.3284 22.2648 68.3284 22.2641C68.3284 22.2634 68.3284 22.2627 68.3284 22.262C68.3284 22.2613 68.3284 22.2606 68.3284 22.2599C68.3284 22.2592 68.3284 22.2585 68.3284 22.2578C68.3284 22.2571 68.3284 22.2564 68.3284 22.2557C68.3284 22.255 68.3284 22.2543 68.3284 22.2536C68.3284 22.2529 68.3284 22.2522 68.3284 22.2515C68.3284 22.2508 68.3284 22.2501 68.3284 22.2494C68.3284 22.2487 68.3284 22.248 68.3284 22.2473C68.3284 22.2466 68.3284 22.2459 68.3284 22.2452C68.3284 22.2446 68.3284 22.2439 68.3284 22.2432C68.3284 22.2425 68.3284 22.2418 68.3284 22.2411C68.3284 22.2404 68.3284 22.2397 68.3284 22.239C68.3284 22.2383 68.3284 22.2376 68.3284 22.2369C68.3284 22.2362 68.3284 22.2355 68.3284 22.2348C68.3284 22.2341 68.3284 22.2334 68.3284 22.2327C68.3284 22.2321 68.3284 22.2314 68.3284 22.2307C68.3284 22.23 68.3284 22.2293 68.3284 22.2286C68.3284 22.2279 68.3284 22.2272 68.3284 22.2265C68.3284 22.2258 68.3284 22.2251 68.3284 22.2245C68.3284 22.2238 68.3284 22.2231 68.3284 22.2224C68.3284 22.2217 68.3284 22.221 68.3284 22.2203C68.3284 22.2196 68.3284 22.2189 68.3284 22.2183C68.3284 22.2176 68.3284 22.2169 68.3284 22.2162C68.3284 22.2155 68.3284 22.2148 68.3284 22.2141C68.3284 22.2134 68.3284 22.2128 68.3284 22.2121C68.3284 22.2114 68.3284 22.2107 68.3284 22.21C68.3284 22.2093 68.3284 22.2087 68.3284 22.208C68.3284 22.2073 68.3284 22.2066 68.3284 22.2059C68.3284 22.2052 68.3284 22.2045 68.3284 22.2039C68.3284 22.2032 68.3284 22.2025 68.3284 22.2018C68.3284 22.2011 68.3284 22.2005 68.3284 22.1998C68.3284 22.1991 68.3284 22.1984 68.3284 22.1977C68.3284 22.197 68.3284 22.1964 68.3284 22.1957C68.3284 22.195 68.3284 22.1943 68.3284 22.1936C68.3284 22.193 68.3284 22.1923 68.3284 22.1916C68.3284 22.1909 68.3284 22.1902 68.3284 22.1896C68.3284 22.1889 68.3284 22.1882 68.3284 22.1875C68.3284 22.1869 68.3284 22.1862 68.3284 22.1855C68.3284 22.1848 68.3284 22.1842 68.3284 22.1835C68.3284 22.1828 68.3284 22.1821 68.3284 22.1814C68.3284 22.1808 68.3284 22.1801 68.3284 22.1794C68.3284 22.1787 68.3284 22.1781 68.3284 22.1774C68.3284 22.1767 68.3284 22.176 68.3284 22.1754C68.3284 22.1747 68.3284 22.174 68.3284 22.1734C68.3284 22.1727 68.3284 22.172 68.3284 22.1713C68.3284 22.1707 68.3284 22.17 68.3284 22.1693C68.3284 22.1687 68.3284 22.168 68.3284 22.1673C68.3284 22.1666 68.3284 22.166 68.3284 22.1653C68.3284 22.1646 68.3284 22.164 68.3284 22.1633C68.3284 22.1626 68.3284 22.1619 68.3284 22.1613C68.3284 22.1606 68.3284 22.1599 68.3284 22.1593C68.3284 22.1586 68.3284 22.1579 68.3284 22.1573C68.3284 22.1566 68.3284 22.1559 68.3284 22.1553C68.3284 22.1546 68.3284 22.1539 68.3284 22.1533C68.3284 22.1526 68.3284 22.1519 68.3284 22.1513C68.3284 22.1506 68.3284 22.1499 68.3284 22.1493C68.3284 22.1486 68.3284 22.1479 68.3284 22.1473C68.3284 22.1466 68.3284 22.146 68.3284 22.1453C68.3284 22.1446 68.3284 22.144 68.3284 22.1433C68.3284 22.1426 68.3284 22.142 68.3284 22.1413C68.3284 22.1406 68.3284 22.14 68.3284 22.1393C68.3284 22.1387 68.3284 22.138 68.3284 22.1373C68.3284 22.1367 68.3284 22.136 68.3284 22.1354C68.3284 22.1347 68.3284 22.134 68.3284 22.1334C68.3284 22.1327 68.3284 22.1321 68.3284 22.1314C68.3284 22.1307 68.3284 22.1301 68.3284 22.1294C68.3284 22.1288 68.3284 22.1281 68.3284 22.1274C68.3284 22.1268 68.3284 22.1261 68.3284 22.1255C68.3284 22.1248 68.3284 22.1242 68.3284 22.1235C68.3284 22.1229 68.3284 22.1222 68.3284 22.1215C68.3284 22.1209 68.3284 22.1202 68.3284 22.1196C68.3284 22.1189 68.3284 22.1183 68.3284 22.1176C68.3284 22.117 68.3284 22.1163 68.3284 22.1156C68.3284 22.115 68.3284 22.1143 68.3284 22.1137C68.3284 22.113 68.3284 22.1124 68.3284 22.1117C68.3284 22.1111 68.3284 22.1104 68.3284 22.1098C68.3284 22.1091 68.3284 22.1085 68.3284 22.1078C68.3284 22.1072 68.3284 22.1065 68.3284 22.1059C68.3284 22.1052 68.3284 22.1046 68.3284 22.1039C68.3284 22.1033 68.3284 22.1026 68.3284 22.102C68.3284 22.1013 68.3284 22.1007 68.3284 22.1C68.3284 22.0994 68.3284 22.0987 68.3284 22.0981C68.3284 22.0974 68.3284 22.0968 68.3284 22.0961C68.3284 22.0955 68.3284 22.0948 68.3284 22.0942C68.3284 22.0936 68.3284 22.0929 68.3284 22.0923C68.3284 22.0916 68.3284 22.091 68.3284 22.0903C68.3284 22.0897 68.3284 22.089 68.3284 22.0884C68.3284 22.0877 68.3284 22.0871 68.3284 22.0865C68.3284 22.0858 68.3284 22.0852 68.3284 22.0845C68.3284 22.0839 68.3284 22.0832 68.3284 22.0826C68.3284 22.082 68.3284 22.0813 68.3284 22.0807C68.3284 22.08 68.3284 22.0794 68.3284 22.0788C68.3284 22.0781 68.3284 22.0775 68.3284 22.0768C68.3284 22.0762 68.3284 22.0756 68.3284 22.0749C68.3284 22.0743 68.3284 22.0736 68.3284 22.073C68.3284 22.0724 68.3284 22.0717 68.3284 22.0711C68.3284 22.0704 68.3284 22.0698 68.3284 22.0692C68.3284 22.0685 68.3284 22.0679 68.3284 22.0673C68.3284 22.0666 68.3284 22.066 68.3284 22.0653C68.3284 22.0647 68.3284 22.0641 68.3284 22.0634C68.3284 22.0628 68.3284 22.0622 68.3284 22.0615C68.3284 22.0609 68.3284 22.0603 68.3284 22.0596C68.3284 22.059 68.3284 22.0584 68.3284 22.0577C68.3284 22.0571 68.3284 22.0565 68.3284 22.0558C68.3284 22.0552 68.3284 22.0546 68.3284 22.0539C68.3284 22.0533 68.3284 22.0527 68.3284 22.052C68.3284 22.0514 68.3284 22.0508 68.3284 22.0501C68.3284 22.0495 68.3284 22.0489 68.3284 22.0482C68.3284 22.0476 68.3284 22.047 68.3284 22.0464C68.3284 22.0457 68.3284 22.0451 68.3284 22.0445C68.3284 22.0438 68.3284 22.0432 68.3284 22.0426C68.3284 22.042 68.3284 22.0413 68.3284 22.0407C68.3284 22.0401 68.3284 22.0394 68.3284 22.0388C68.3284 22.0382 68.3284 22.0376 68.3284 22.0369C68.3284 22.0363 68.3284 22.0357 68.3284 22.0351C68.3284 22.0344 68.3284 22.0338 68.3284 22.0332C68.3284 22.0326 68.3284 22.0319 68.3284 22.0313C68.3284 22.0307 68.3284 22.0301 68.3284 22.0294C68.3284 22.0288 68.3284 22.0282 68.3284 22.0276C68.3284 22.027 68.3284 22.0263 68.3284 22.0257C68.3284 22.0251 68.3284 22.0245 68.3284 22.0238C68.3284 22.0232 68.3284 22.0226 68.3284 22.022C68.3284 22.0214 68.3284 22.0207 68.3284 22.0201C68.3284 22.0195 68.3284 22.0189 68.3284 22.0183C68.3284 22.0176 68.3284 22.017 68.3284 22.0164C68.3284 22.0158 68.3284 22.0152 68.3284 22.0145C68.3284 22.0139 68.3284 22.0133 68.3284 22.0127C68.3284 22.0121 68.3284 22.0115 68.3284 22.0108C68.3284 22.0102 68.3284 22.0096 68.3284 22.009C68.3284 22.0084 68.3284 22.0078 68.3284 22.0071C68.3284 22.0065 68.3284 22.0059 68.3284 22.0053C68.3284 22.0047 68.3284 22.0041 68.3284 22.0035C68.3284 22.0028 68.3284 22.0022 68.3284 22.0016C68.3284 22.001 68.3284 22.0004 68.3284 21.9998C68.3284 21.9992 68.3284 21.9985 68.3284 21.9979C68.3284 21.9973 68.3284 21.9967 68.3284 21.9961C68.3284 21.9955 68.3284 21.9949 68.3284 21.9943C68.3284 21.9937 68.3284 21.993 68.3284 21.9924C68.3284 21.9918 68.3284 21.9912 68.3284 21.9906C68.3284 21.99 68.3284 21.9894 68.3284 21.9888C68.3284 21.9882 68.3284 21.9876 68.3284 21.987C68.3284 21.9863 68.3284 21.9857 68.3284 21.9851C68.3284 21.9845 68.3284 21.9839 68.3284 21.9833C68.3284 21.9827 68.3284 21.9821 68.3284 21.9815C68.3284 21.9809 68.3284 21.9803 68.3284 21.9797C68.3284 21.9791 68.3284 21.9785 68.3284 21.9779C68.3284 21.9772 68.3284 21.9766 68.3284 21.976C68.3284 21.9754 68.3284 21.9748 68.3284 21.9742C68.3284 21.9736 68.3284 21.973 68.3284 21.9724C68.3284 21.9718 68.3284 21.9712 68.3284 21.9706C68.3284 21.97 68.3284 21.9694 68.3284 21.9688C68.3284 21.9682 68.3284 21.9676 68.3284 21.967C68.3284 21.9664 68.3284 21.9658 68.3284 21.9652C68.3284 21.9646 68.3284 21.964 68.3284 21.9634C68.3284 21.9628 68.3284 21.9622 68.3284 21.9616C68.3284 21.961 68.3284 21.9604 68.3284 21.9598C68.3284 21.9592 68.3284 21.9586 68.3284 21.958C68.3284 21.9574 68.3284 21.9568 68.3284 21.9562C68.3284 21.9556 68.3284 21.955 68.3284 21.9544C68.3284 21.9538 68.3284 21.9532 68.3284 21.9526C68.3284 21.9521 68.3284 21.9515 68.3284 21.9509C68.3284 21.9503 68.3284 21.9497 68.3284 21.9491C68.3284 21.9485 68.3284 21.9479 68.3284 21.9473C68.3284 21.9467 68.3284 21.9461 68.3284 21.9455C68.3284 21.9449 68.3284 21.9443 68.3284 21.9437C68.3284 21.9432 68.3284 21.9426 68.3284 21.942C68.3284 21.9414 68.3284 21.9408 68.3284 21.9402C68.3284 21.9396 68.3284 21.939 68.3284 21.9384C68.3284 21.9378 68.3284 21.9372 68.3284 21.9367C68.3284 21.9361 68.3284 21.9355 68.3284 21.9349C68.3284 21.9343 68.3284 21.9337 68.3284 21.9331C68.3284 21.9325 68.3284 21.9319 68.3284 21.9314C68.3284 21.9308 68.3284 21.9302 68.3284 21.9296C68.3284 21.929 68.3284 21.9284 68.3284 21.9278C68.3284 21.9273 68.3284 21.9267 68.3284 21.9261C68.3284 21.9255 68.3284 21.9249 68.3284 21.9243C68.3284 21.9237 68.3284 21.9232 68.3284 21.9226C68.3284 21.922 68.3284 21.9214 68.3284 21.9208C68.3284 21.9202 68.3284 21.9197 68.3284 21.9191C68.3284 21.9185 68.3284 21.9179 68.3284 21.9173C68.3284 21.9167 68.3284 21.9162 68.3284 21.9156C68.3284 21.915 68.3284 21.9144 68.3284 21.9138C68.3284 21.9133 68.3284 21.9127 68.3284 21.9121C68.3284 21.9115 68.3284 21.9109 68.3284 21.9104C68.3284 21.9098 68.3284 21.9092 68.3284 21.9086C68.3284 21.908 68.3284 21.9075 68.3284 21.9069C68.3284 21.9063 68.3284 21.9057 68.3284 21.9051C68.3284 21.9046 68.3284 21.904 68.3284 21.9034C68.3284 21.9028 68.3284 21.9023 68.3284 21.9017C68.3284 21.9011 68.3284 21.9005 68.3284 21.9C68.3284 21.8994 68.3284 21.8988 68.3284 21.8982C68.3284 21.8977 68.3284 21.8971 68.3284 21.8965C68.3284 21.8959 68.3284 21.8954 68.3284 21.8948C68.3284 21.8942 68.3284 21.8936 68.3284 21.8931C68.3284 21.8925 68.3284 21.8919 68.3284 21.8914C68.3284 21.8908 68.3284 21.8902 68.3284 21.8896C68.3284 21.8891 68.3284 21.8885 68.3284 21.8879C68.3284 21.8874 68.3284 21.8868 68.3284 21.8862C68.3284 21.8856 68.3284 21.8851 68.3284 21.8845C68.3284 21.8839 68.3284 21.8834 68.3284 21.8828C68.3284 21.8822 68.3284 21.8817 68.3284 21.8811C68.3284 21.8805 68.3284 21.88 68.3284 21.8794C68.3284 21.8788 68.3284 21.8783 68.3284 21.8777C68.3284 21.8771 68.3284 21.8766 68.3284 21.876C68.3284 21.8754 68.3284 21.8749 68.3284 21.8743C68.3284 21.8737 68.3284 21.8732 68.3284 21.8726C68.3284 21.872 68.3284 21.8715 68.3284 21.8709C68.3284 21.8703 68.3284 21.8698 68.3284 21.8692C68.3284 21.8687 68.3284 21.8681 68.3284 21.8675C68.3284 21.867 68.3284 21.8664 68.3284 21.8658C68.3284 21.8653 68.3284 21.8647 68.3284 21.8642C68.3284 21.8636 68.3284 21.863 68.3284 21.8625C68.3284 21.8619 68.3284 21.8614 68.3284 21.8608C68.3284 21.8602 68.3284 21.8597 68.3284 21.8591C68.3284 21.8586 68.3284 21.858 68.3284 21.8574C68.3284 21.8569 68.3284 21.8563 68.3284 21.8558C68.3284 21.8552 68.3284 21.8546 68.3284 21.8541C68.3284 21.8535 68.3284 21.853 68.3284 21.8524C68.3284 21.8519 68.3284 21.8513 68.3284 21.8507C68.3284 21.8502 68.3284 21.8496 68.3284 21.8491C68.3284 21.8485 68.3284 21.848 68.3284 21.8474C68.3284 21.8469 68.3284 21.8463 68.3284 21.8458C68.3284 21.8452 68.3284 21.8446 68.3284 21.8441C68.3284 21.8435 68.3284 21.843 68.3284 21.8424C68.3284 21.8419 68.3284 21.8413 68.3284 21.8408C68.3284 21.8402 68.3284 21.8397 68.3284 21.8391C68.3284 21.8386 68.3284 21.838 68.3284 21.8375C68.3284 21.8369 68.3284 21.8364 68.3284 21.8358C68.3284 21.8353 68.3284 21.8347 68.3284 21.8342C68.3284 21.8336 68.3284 21.8331 68.3284 21.8325C68.3284 21.832 68.3284 21.8314 68.3284 21.8309C68.3284 21.8303 68.3284 21.8298 68.3284 21.8292C68.3284 21.8287 68.3284 21.8281 68.3284 21.8276C68.3284 21.827 68.3284 21.8265 68.3284 21.826C68.3284 21.8254 68.3284 21.8249 68.3284 21.8243C68.3284 21.8238 68.3284 21.8232 68.3284 21.8227C68.3284 21.8221 68.3284 21.8216 68.3284 21.821C68.3284 21.8205 68.3284 21.82 68.3284 21.8194C68.3284 21.8189 68.3284 21.8183 68.3284 21.8178C68.3284 21.8172 68.3284 21.8167 68.3284 21.8162C68.3284 21.8156 68.3284 21.8151 68.3284 21.8145C68.3284 21.814 68.3284 21.8135 68.3284 21.8129C68.3284 21.8124 68.3284 21.8118 68.3284 21.8113C68.3284 21.8108 68.3284 21.8102 68.3284 21.8097C68.3284 21.8091 68.3284 21.8086 68.3284 21.8081C68.3284 21.8075 68.3284 21.807 68.3284 21.8064C68.3284 21.8059 68.3284 21.8054 68.3284 21.8048C68.3284 21.8043 68.3284 21.8038 68.3284 21.8032C68.3284 21.8027 68.3284 21.8021 68.3284 21.8016C68.3284 21.8011 68.3284 21.8005 68.3284 21.8C68.3284 21.7995 68.3284 21.7989 68.3284 21.7984C68.3284 21.7979 68.3284 21.7973 68.3284 21.7968C68.3284 21.7963 68.3284 21.7957 68.3284 21.7952C68.3284 21.7947 68.3284 21.7941 68.3284 21.7936C68.3284 21.7931 68.3284 21.7925 68.3284 21.792C68.3284 21.7915 68.3284 21.7909 68.3284 21.7904C68.3284 21.7899 68.3284 21.7893 68.3284 21.7888C68.3284 21.7883 68.3284 21.7878 68.3284 21.7872C68.3284 21.7867 68.3284 21.7862 68.3284 21.7856C68.3284 21.7851 68.3284 21.7846 68.3284 21.784C68.3284 21.7835 68.3284 21.783 68.3284 21.7825C68.3284 21.7819 68.3284 21.7814 68.3284 21.7809C68.3284 21.7804 68.3284 21.7798 68.3284 21.7793C68.3284 21.7788 68.3284 21.7782 68.3284 21.7777C68.3284 21.7772 68.3284 21.7767 68.3284 21.7761C68.3284 21.7756 68.3284 21.7751 68.3284 21.7746C68.3284 21.774 68.3284 21.7735 68.3284 21.773C68.3284 21.7725 68.3284 21.7719 68.3284 21.7714C68.3284 21.7709 68.3284 21.7704 68.3284 21.7699C68.3284 21.7693 68.3284 21.7688 68.3284 21.7683C68.3284 21.7678 68.3284 21.7672 68.3284 21.7667C68.3284 21.7662 68.3284 21.7657 68.3284 21.7652C68.3284 21.7646 68.3284 21.7641 68.3284 21.7636C68.3284 21.7631 68.3284 21.7626 68.3284 21.762C68.3284 21.7615 68.3284 21.761 68.3284 21.7605C68.3284 21.76 68.3284 21.7594 68.3284 21.7589C68.3284 21.7584 68.3284 21.7579 68.3284 21.7574C68.3284 21.7569 68.3284 21.7563 68.3284 21.7558C68.3284 21.7553 68.3284 21.7548 68.3284 21.7543C68.3284 21.7538 68.3284 21.7532 68.3284 21.7527C68.3284 21.7522 68.3284 21.7517 68.3284 21.7512C68.3284 21.7507 68.3284 21.7502 68.3284 21.7496C68.3284 21.7491 68.3284 21.7486 68.3284 21.7481C68.3284 21.7476 68.3284 21.7471 68.3284 21.7466C68.3284 21.7461 68.3284 21.7455 68.3284 21.745C68.3284 21.7445 68.3284 21.744 68.3284 21.7435C68.3284 21.743 68.3284 21.7425 68.3284 21.742C68.3284 21.7415 68.3284 21.7409 68.3284 21.7404C68.3284 21.7399 68.3284 21.7394 68.3284 21.7389C68.3284 21.7384 68.3284 21.7379 68.3284 21.7374C68.3284 21.7369 68.3284 21.7364 68.3284 21.7359C68.3284 21.7353 68.3284 21.7348 68.3284 21.7343C68.3284 21.7338 68.3284 21.7333 68.3284 21.7328C68.3284 21.7323 68.3284 21.7318 68.3284 21.7313C68.3284 21.7308 68.3284 21.7303 68.3284 21.7298C68.3284 21.7293 68.3284 21.7288 68.3284 21.7283C68.3284 21.7278 68.3284 21.7273 68.3284 21.7267C68.3284 21.7262 68.3284 21.7257 68.3284 21.7252C68.3284 21.7247 68.3284 21.7242 68.3284 21.7237C68.3284 21.7232 68.3284 21.7227 68.3284 21.7222C68.3284 21.7217 68.3284 21.7212 68.3284 21.7207C68.3284 21.7202 68.3284 21.7197 68.3284 21.7192C68.3284 21.7187 68.3284 21.7182 68.3284 21.7177C68.3284 21.7172 68.3284 21.7167 68.3284 21.7162C68.3284 21.7157 68.3284 21.7152 68.3284 21.7147C68.3284 21.7142 68.3284 21.7137 68.3284 21.7132C68.3284 21.7127 68.3284 21.7122 68.3284 21.7117C68.3284 21.7112 68.3284 21.7107 68.3284 21.7102C68.3284 21.7097 68.3284 21.7092 68.3284 21.7088C68.3284 21.7083 68.3284 21.7078 68.3284 21.7073C68.3284 21.7068 68.3284 21.7063 68.3284 21.7058C68.3284 21.7053 68.3284 21.7048 68.3284 21.7043C68.3284 21.7038 68.3284 21.7033 68.3284 21.7028C68.3284 21.7023 68.3284 21.7018 68.3284 21.7013C68.3284 21.7008 68.3284 21.7004 68.3284 21.6999C68.3284 21.6994 68.3284 21.6989 68.3284 21.6984C68.3284 21.6979 68.3284 21.6974 68.3284 21.6969C68.3284 21.6964 68.3284 21.6959 68.3284 21.6954C68.3284 21.695 68.3284 21.6945 68.3284 21.694C68.3284 21.6935 68.3284 21.693 68.3284 21.6925C68.3284 21.692 68.3284 21.6915 68.3284 21.691C68.3284 21.6906 68.3284 21.6901 68.3284 21.6896H66.3284C66.3284 21.6901 66.3284 21.6906 66.3284 21.691C66.3284 21.6915 66.3284 21.692 66.3284 21.6925C66.3284 21.693 66.3284 21.6935 66.3284 21.694C66.3284 21.6945 66.3284 21.695 66.3284 21.6954C66.3284 21.6959 66.3284 21.6964 66.3284 21.6969C66.3284 21.6974 66.3284 21.6979 66.3284 21.6984C66.3284 21.6989 66.3284 21.6994 66.3284 21.6999C66.3284 21.7004 66.3284 21.7008 66.3284 21.7013C66.3284 21.7018 66.3284 21.7023 66.3284 21.7028C66.3284 21.7033 66.3284 21.7038 66.3284 21.7043C66.3284 21.7048 66.3284 21.7053 66.3284 21.7058C66.3284 21.7063 66.3284 21.7068 66.3284 21.7073C66.3284 21.7078 66.3284 21.7083 66.3284 21.7088C66.3284 21.7092 66.3284 21.7097 66.3284 21.7102C66.3284 21.7107 66.3284 21.7112 66.3284 21.7117C66.3284 21.7122 66.3284 21.7127 66.3284 21.7132C66.3284 21.7137 66.3284 21.7142 66.3284 21.7147C66.3284 21.7152 66.3284 21.7157 66.3284 21.7162C66.3284 21.7167 66.3284 21.7172 66.3284 21.7177C66.3284 21.7182 66.3284 21.7187 66.3284 21.7192C66.3284 21.7197 66.3284 21.7202 66.3284 21.7207C66.3284 21.7212 66.3284 21.7217 66.3284 21.7222C66.3284 21.7227 66.3284 21.7232 66.3284 21.7237C66.3284 21.7242 66.3284 21.7247 66.3284 21.7252C66.3284 21.7257 66.3284 21.7262 66.3284 21.7267C66.3284 21.7273 66.3284 21.7278 66.3284 21.7283C66.3284 21.7288 66.3284 21.7293 66.3284 21.7298C66.3284 21.7303 66.3284 21.7308 66.3284 21.7313C66.3284 21.7318 66.3284 21.7323 66.3284 21.7328C66.3284 21.7333 66.3284 21.7338 66.3284 21.7343C66.3284 21.7348 66.3284 21.7353 66.3284 21.7359C66.3284 21.7364 66.3284 21.7369 66.3284 21.7374C66.3284 21.7379 66.3284 21.7384 66.3284 21.7389C66.3284 21.7394 66.3284 21.7399 66.3284 21.7404C66.3284 21.7409 66.3284 21.7415 66.3284 21.742C66.3284 21.7425 66.3284 21.743 66.3284 21.7435C66.3284 21.744 66.3284 21.7445 66.3284 21.745C66.3284 21.7455 66.3284 21.7461 66.3284 21.7466C66.3284 21.7471 66.3284 21.7476 66.3284 21.7481C66.3284 21.7486 66.3284 21.7491 66.3284 21.7496C66.3284 21.7502 66.3284 21.7507 66.3284 21.7512C66.3284 21.7517 66.3284 21.7522 66.3284 21.7527C66.3284 21.7532 66.3284 21.7538 66.3284 21.7543C66.3284 21.7548 66.3284 21.7553 66.3284 21.7558C66.3284 21.7563 66.3284 21.7569 66.3284 21.7574C66.3284 21.7579 66.3284 21.7584 66.3284 21.7589C66.3284 21.7594 66.3284 21.76 66.3284 21.7605C66.3284 21.761 66.3284 21.7615 66.3284 21.762C66.3284 21.7626 66.3284 21.7631 66.3284 21.7636C66.3284 21.7641 66.3284 21.7646 66.3284 21.7652C66.3284 21.7657 66.3284 21.7662 66.3284 21.7667C66.3284 21.7672 66.3284 21.7678 66.3284 21.7683C66.3284 21.7688 66.3284 21.7693 66.3284 21.7699C66.3284 21.7704 66.3284 21.7709 66.3284 21.7714C66.3284 21.7719 66.3284 21.7725 66.3284 21.773C66.3284 21.7735 66.3284 21.774 66.3284 21.7746C66.3284 21.7751 66.3284 21.7756 66.3284 21.7761C66.3284 21.7767 66.3284 21.7772 66.3284 21.7777C66.3284 21.7782 66.3284 21.7788 66.3284 21.7793C66.3284 21.7798 66.3284 21.7804 66.3284 21.7809C66.3284 21.7814 66.3284 21.7819 66.3284 21.7825C66.3284 21.783 66.3284 21.7835 66.3284 21.784C66.3284 21.7846 66.3284 21.7851 66.3284 21.7856C66.3284 21.7862 66.3284 21.7867 66.3284 21.7872C66.3284 21.7878 66.3284 21.7883 66.3284 21.7888C66.3284 21.7893 66.3284 21.7899 66.3284 21.7904C66.3284 21.7909 66.3284 21.7915 66.3284 21.792C66.3284 21.7925 66.3284 21.7931 66.3284 21.7936C66.3284 21.7941 66.3284 21.7947 66.3284 21.7952C66.3284 21.7957 66.3284 21.7963 66.3284 21.7968C66.3284 21.7973 66.3284 21.7979 66.3284 21.7984C66.3284 21.7989 66.3284 21.7995 66.3284 21.8C66.3284 21.8005 66.3284 21.8011 66.3284 21.8016C66.3284 21.8021 66.3284 21.8027 66.3284 21.8032C66.3284 21.8038 66.3284 21.8043 66.3284 21.8048C66.3284 21.8054 66.3284 21.8059 66.3284 21.8064C66.3284 21.807 66.3284 21.8075 66.3284 21.8081C66.3284 21.8086 66.3284 21.8091 66.3284 21.8097C66.3284 21.8102 66.3284 21.8108 66.3284 21.8113C66.3284 21.8118 66.3284 21.8124 66.3284 21.8129C66.3284 21.8135 66.3284 21.814 66.3284 21.8145C66.3284 21.8151 66.3284 21.8156 66.3284 21.8162C66.3284 21.8167 66.3284 21.8172 66.3284 21.8178C66.3284 21.8183 66.3284 21.8189 66.3284 21.8194C66.3284 21.82 66.3284 21.8205 66.3284 21.821C66.3284 21.8216 66.3284 21.8221 66.3284 21.8227C66.3284 21.8232 66.3284 21.8238 66.3284 21.8243C66.3284 21.8249 66.3284 21.8254 66.3284 21.826C66.3284 21.8265 66.3284 21.827 66.3284 21.8276C66.3284 21.8281 66.3284 21.8287 66.3284 21.8292C66.3284 21.8298 66.3284 21.8303 66.3284 21.8309C66.3284 21.8314 66.3284 21.832 66.3284 21.8325C66.3284 21.8331 66.3284 21.8336 66.3284 21.8342C66.3284 21.8347 66.3284 21.8353 66.3284 21.8358C66.3284 21.8364 66.3284 21.8369 66.3284 21.8375C66.3284 21.838 66.3284 21.8386 66.3284 21.8391C66.3284 21.8397 66.3284 21.8402 66.3284 21.8408C66.3284 21.8413 66.3284 21.8419 66.3284 21.8424C66.3284 21.843 66.3284 21.8435 66.3284 21.8441C66.3284 21.8446 66.3284 21.8452 66.3284 21.8458C66.3284 21.8463 66.3284 21.8469 66.3284 21.8474C66.3284 21.848 66.3284 21.8485 66.3284 21.8491C66.3284 21.8496 66.3284 21.8502 66.3284 21.8507C66.3284 21.8513 66.3284 21.8519 66.3284 21.8524C66.3284 21.853 66.3284 21.8535 66.3284 21.8541C66.3284 21.8546 66.3284 21.8552 66.3284 21.8558C66.3284 21.8563 66.3284 21.8569 66.3284 21.8574C66.3284 21.858 66.3284 21.8586 66.3284 21.8591C66.3284 21.8597 66.3284 21.8602 66.3284 21.8608C66.3284 21.8614 66.3284 21.8619 66.3284 21.8625C66.3284 21.863 66.3284 21.8636 66.3284 21.8642C66.3284 21.8647 66.3284 21.8653 66.3284 21.8658C66.3284 21.8664 66.3284 21.867 66.3284 21.8675C66.3284 21.8681 66.3284 21.8687 66.3284 21.8692C66.3284 21.8698 66.3284 21.8703 66.3284 21.8709C66.3284 21.8715 66.3284 21.872 66.3284 21.8726C66.3284 21.8732 66.3284 21.8737 66.3284 21.8743C66.3284 21.8749 66.3284 21.8754 66.3284 21.876C66.3284 21.8766 66.3284 21.8771 66.3284 21.8777C66.3284 21.8783 66.3284 21.8788 66.3284 21.8794C66.3284 21.88 66.3284 21.8805 66.3284 21.8811C66.3284 21.8817 66.3284 21.8822 66.3284 21.8828C66.3284 21.8834 66.3284 21.8839 66.3284 21.8845C66.3284 21.8851 66.3284 21.8856 66.3284 21.8862C66.3284 21.8868 66.3284 21.8874 66.3284 21.8879C66.3284 21.8885 66.3284 21.8891 66.3284 21.8896C66.3284 21.8902 66.3284 21.8908 66.3284 21.8914C66.3284 21.8919 66.3284 21.8925 66.3284 21.8931C66.3284 21.8936 66.3284 21.8942 66.3284 21.8948C66.3284 21.8954 66.3284 21.8959 66.3284 21.8965C66.3284 21.8971 66.3284 21.8977 66.3284 21.8982C66.3284 21.8988 66.3284 21.8994 66.3284 21.9C66.3284 21.9005 66.3284 21.9011 66.3284 21.9017C66.3284 21.9023 66.3284 21.9028 66.3284 21.9034C66.3284 21.904 66.3284 21.9046 66.3284 21.9051C66.3284 21.9057 66.3284 21.9063 66.3284 21.9069C66.3284 21.9075 66.3284 21.908 66.3284 21.9086C66.3284 21.9092 66.3284 21.9098 66.3284 21.9104C66.3284 21.9109 66.3284 21.9115 66.3284 21.9121C66.3284 21.9127 66.3284 21.9133 66.3284 21.9138C66.3284 21.9144 66.3284 21.915 66.3284 21.9156C66.3284 21.9162 66.3284 21.9167 66.3284 21.9173C66.3284 21.9179 66.3284 21.9185 66.3284 21.9191C66.3284 21.9197 66.3284 21.9202 66.3284 21.9208C66.3284 21.9214 66.3284 21.922 66.3284 21.9226C66.3284 21.9232 66.3284 21.9237 66.3284 21.9243C66.3284 21.9249 66.3284 21.9255 66.3284 21.9261C66.3284 21.9267 66.3284 21.9273 66.3284 21.9278C66.3284 21.9284 66.3284 21.929 66.3284 21.9296C66.3284 21.9302 66.3284 21.9308 66.3284 21.9314C66.3284 21.9319 66.3284 21.9325 66.3284 21.9331C66.3284 21.9337 66.3284 21.9343 66.3284 21.9349C66.3284 21.9355 66.3284 21.9361 66.3284 21.9367C66.3284 21.9372 66.3284 21.9378 66.3284 21.9384C66.3284 21.939 66.3284 21.9396 66.3284 21.9402C66.3284 21.9408 66.3284 21.9414 66.3284 21.942C66.3284 21.9426 66.3284 21.9432 66.3284 21.9437C66.3284 21.9443 66.3284 21.9449 66.3284 21.9455C66.3284 21.9461 66.3284 21.9467 66.3284 21.9473C66.3284 21.9479 66.3284 21.9485 66.3284 21.9491C66.3284 21.9497 66.3284 21.9503 66.3284 21.9509C66.3284 21.9515 66.3284 21.9521 66.3284 21.9526C66.3284 21.9532 66.3284 21.9538 66.3284 21.9544C66.3284 21.955 66.3284 21.9556 66.3284 21.9562C66.3284 21.9568 66.3284 21.9574 66.3284 21.958C66.3284 21.9586 66.3284 21.9592 66.3284 21.9598C66.3284 21.9604 66.3284 21.961 66.3284 21.9616C66.3284 21.9622 66.3284 21.9628 66.3284 21.9634C66.3284 21.964 66.3284 21.9646 66.3284 21.9652C66.3284 21.9658 66.3284 21.9664 66.3284 21.967C66.3284 21.9676 66.3284 21.9682 66.3284 21.9688C66.3284 21.9694 66.3284 21.97 66.3284 21.9706C66.3284 21.9712 66.3284 21.9718 66.3284 21.9724C66.3284 21.973 66.3284 21.9736 66.3284 21.9742C66.3284 21.9748 66.3284 21.9754 66.3284 21.976C66.3284 21.9766 66.3284 21.9772 66.3284 21.9779C66.3284 21.9785 66.3284 21.9791 66.3284 21.9797C66.3284 21.9803 66.3284 21.9809 66.3284 21.9815C66.3284 21.9821 66.3284 21.9827 66.3284 21.9833C66.3284 21.9839 66.3284 21.9845 66.3284 21.9851C66.3284 21.9857 66.3284 21.9863 66.3284 21.987C66.3284 21.9876 66.3284 21.9882 66.3284 21.9888C66.3284 21.9894 66.3284 21.99 66.3284 21.9906C66.3284 21.9912 66.3284 21.9918 66.3284 21.9924C66.3284 21.993 66.3284 21.9937 66.3284 21.9943C66.3284 21.9949 66.3284 21.9955 66.3284 21.9961C66.3284 21.9967 66.3284 21.9973 66.3284 21.9979C66.3284 21.9985 66.3284 21.9992 66.3284 21.9998C66.3284 22.0004 66.3284 22.001 66.3284 22.0016C66.3284 22.0022 66.3284 22.0028 66.3284 22.0035C66.3284 22.0041 66.3284 22.0047 66.3284 22.0053C66.3284 22.0059 66.3284 22.0065 66.3284 22.0071C66.3284 22.0078 66.3284 22.0084 66.3284 22.009C66.3284 22.0096 66.3284 22.0102 66.3284 22.0108C66.3284 22.0115 66.3284 22.0121 66.3284 22.0127C66.3284 22.0133 66.3284 22.0139 66.3284 22.0145C66.3284 22.0152 66.3284 22.0158 66.3284 22.0164C66.3284 22.017 66.3284 22.0176 66.3284 22.0183C66.3284 22.0189 66.3284 22.0195 66.3284 22.0201C66.3284 22.0207 66.3284 22.0214 66.3284 22.022C66.3284 22.0226 66.3284 22.0232 66.3284 22.0238C66.3284 22.0245 66.3284 22.0251 66.3284 22.0257C66.3284 22.0263 66.3284 22.027 66.3284 22.0276C66.3284 22.0282 66.3284 22.0288 66.3284 22.0294C66.3284 22.0301 66.3284 22.0307 66.3284 22.0313C66.3284 22.0319 66.3284 22.0326 66.3284 22.0332C66.3284 22.0338 66.3284 22.0344 66.3284 22.0351C66.3284 22.0357 66.3284 22.0363 66.3284 22.0369C66.3284 22.0376 66.3284 22.0382 66.3284 22.0388C66.3284 22.0394 66.3284 22.0401 66.3284 22.0407C66.3284 22.0413 66.3284 22.042 66.3284 22.0426C66.3284 22.0432 66.3284 22.0438 66.3284 22.0445C66.3284 22.0451 66.3284 22.0457 66.3284 22.0464C66.3284 22.047 66.3284 22.0476 66.3284 22.0482C66.3284 22.0489 66.3284 22.0495 66.3284 22.0501C66.3284 22.0508 66.3284 22.0514 66.3284 22.052C66.3284 22.0527 66.3284 22.0533 66.3284 22.0539C66.3284 22.0546 66.3284 22.0552 66.3284 22.0558C66.3284 22.0565 66.3284 22.0571 66.3284 22.0577C66.3284 22.0584 66.3284 22.059 66.3284 22.0596C66.3284 22.0603 66.3284 22.0609 66.3284 22.0615C66.3284 22.0622 66.3284 22.0628 66.3284 22.0634C66.3284 22.0641 66.3284 22.0647 66.3284 22.0653C66.3284 22.066 66.3284 22.0666 66.3284 22.0673C66.3284 22.0679 66.3284 22.0685 66.3284 22.0692C66.3284 22.0698 66.3284 22.0704 66.3284 22.0711C66.3284 22.0717 66.3284 22.0724 66.3284 22.073C66.3284 22.0736 66.3284 22.0743 66.3284 22.0749C66.3284 22.0756 66.3284 22.0762 66.3284 22.0768C66.3284 22.0775 66.3284 22.0781 66.3284 22.0788C66.3284 22.0794 66.3284 22.08 66.3284 22.0807C66.3284 22.0813 66.3284 22.082 66.3284 22.0826C66.3284 22.0832 66.3284 22.0839 66.3284 22.0845C66.3284 22.0852 66.3284 22.0858 66.3284 22.0865C66.3284 22.0871 66.3284 22.0877 66.3284 22.0884C66.3284 22.089 66.3284 22.0897 66.3284 22.0903C66.3284 22.091 66.3284 22.0916 66.3284 22.0923C66.3284 22.0929 66.3284 22.0936 66.3284 22.0942C66.3284 22.0948 66.3284 22.0955 66.3284 22.0961C66.3284 22.0968 66.3284 22.0974 66.3284 22.0981C66.3284 22.0987 66.3284 22.0994 66.3284 22.1C66.3284 22.1007 66.3284 22.1013 66.3284 22.102C66.3284 22.1026 66.3284 22.1033 66.3284 22.1039C66.3284 22.1046 66.3284 22.1052 66.3284 22.1059C66.3284 22.1065 66.3284 22.1072 66.3284 22.1078C66.3284 22.1085 66.3284 22.1091 66.3284 22.1098C66.3284 22.1104 66.3284 22.1111 66.3284 22.1117C66.3284 22.1124 66.3284 22.113 66.3284 22.1137C66.3284 22.1143 66.3284 22.115 66.3284 22.1156C66.3284 22.1163 66.3284 22.117 66.3284 22.1176C66.3284 22.1183 66.3284 22.1189 66.3284 22.1196C66.3284 22.1202 66.3284 22.1209 66.3284 22.1215C66.3284 22.1222 66.3284 22.1229 66.3284 22.1235C66.3284 22.1242 66.3284 22.1248 66.3284 22.1255C66.3284 22.1261 66.3284 22.1268 66.3284 22.1274C66.3284 22.1281 66.3284 22.1288 66.3284 22.1294C66.3284 22.1301 66.3284 22.1307 66.3284 22.1314C66.3284 22.1321 66.3284 22.1327 66.3284 22.1334C66.3284 22.134 66.3284 22.1347 66.3284 22.1354C66.3284 22.136 66.3284 22.1367 66.3284 22.1373C66.3284 22.138 66.3284 22.1387 66.3284 22.1393C66.3284 22.14 66.3284 22.1406 66.3284 22.1413C66.3284 22.142 66.3284 22.1426 66.3284 22.1433C66.3284 22.144 66.3284 22.1446 66.3284 22.1453C66.3284 22.146 66.3284 22.1466 66.3284 22.1473C66.3284 22.1479 66.3284 22.1486 66.3284 22.1493C66.3284 22.1499 66.3284 22.1506 66.3284 22.1513C66.3284 22.1519 66.3284 22.1526 66.3284 22.1533C66.3284 22.1539 66.3284 22.1546 66.3284 22.1553C66.3284 22.1559 66.3284 22.1566 66.3284 22.1573C66.3284 22.1579 66.3284 22.1586 66.3284 22.1593C66.3284 22.1599 66.3284 22.1606 66.3284 22.1613C66.3284 22.1619 66.3284 22.1626 66.3284 22.1633C66.3284 22.164 66.3284 22.1646 66.3284 22.1653C66.3284 22.166 66.3284 22.1666 66.3284 22.1673C66.3284 22.168 66.3284 22.1687 66.3284 22.1693C66.3284 22.17 66.3284 22.1707 66.3284 22.1713C66.3284 22.172 66.3284 22.1727 66.3284 22.1734C66.3284 22.174 66.3284 22.1747 66.3284 22.1754C66.3284 22.176 66.3284 22.1767 66.3284 22.1774C66.3284 22.1781 66.3284 22.1787 66.3284 22.1794C66.3284 22.1801 66.3284 22.1808 66.3284 22.1814C66.3284 22.1821 66.3284 22.1828 66.3284 22.1835C66.3284 22.1842 66.3284 22.1848 66.3284 22.1855C66.3284 22.1862 66.3284 22.1869 66.3284 22.1875C66.3284 22.1882 66.3284 22.1889 66.3284 22.1896C66.3284 22.1902 66.3284 22.1909 66.3284 22.1916C66.3284 22.1923 66.3284 22.193 66.3284 22.1936C66.3284 22.1943 66.3284 22.195 66.3284 22.1957C66.3284 22.1964 66.3284 22.197 66.3284 22.1977C66.3284 22.1984 66.3284 22.1991 66.3284 22.1998C66.3284 22.2005 66.3284 22.2011 66.3284 22.2018C66.3284 22.2025 66.3284 22.2032 66.3284 22.2039C66.3284 22.2045 66.3284 22.2052 66.3284 22.2059C66.3284 22.2066 66.3284 22.2073 66.3284 22.208C66.3284 22.2087 66.3284 22.2093 66.3284 22.21C66.3284 22.2107 66.3284 22.2114 66.3284 22.2121C66.3284 22.2128 66.3284 22.2134 66.3284 22.2141C66.3284 22.2148 66.3284 22.2155 66.3284 22.2162C66.3284 22.2169 66.3284 22.2176 66.3284 22.2183C66.3284 22.2189 66.3284 22.2196 66.3284 22.2203C66.3284 22.221 66.3284 22.2217 66.3284 22.2224C66.3284 22.2231 66.3284 22.2238 66.3284 22.2245C66.3284 22.2251 66.3284 22.2258 66.3284 22.2265C66.3284 22.2272 66.3284 22.2279 66.3284 22.2286C66.3284 22.2293 66.3284 22.23 66.3284 22.2307C66.3284 22.2314 66.3284 22.2321 66.3284 22.2327C66.3284 22.2334 66.3284 22.2341 66.3284 22.2348C66.3284 22.2355 66.3284 22.2362 66.3284 22.2369C66.3284 22.2376 66.3284 22.2383 66.3284 22.239C66.3284 22.2397 66.3284 22.2404 66.3284 22.2411C66.3284 22.2418 66.3284 22.2425 66.3284 22.2432C66.3284 22.2439 66.3284 22.2446 66.3284 22.2452C66.3284 22.2459 66.3284 22.2466 66.3284 22.2473C66.3284 22.248 66.3284 22.2487 66.3284 22.2494C66.3284 22.2501 66.3284 22.2508 66.3284 22.2515C66.3284 22.2522 66.3284 22.2529 66.3284 22.2536C66.3284 22.2543 66.3284 22.255 66.3284 22.2557C66.3284 22.2564 66.3284 22.2571 66.3284 22.2578C66.3284 22.2585 66.3284 22.2592 66.3284 22.2599C66.3284 22.2606 66.3284 22.2613 66.3284 22.262C66.3284 22.2627 66.3284 22.2634 66.3284 22.2641C66.3284 22.2648 66.3284 22.2655 66.3284 22.2662C66.3284 22.2669 66.3284 22.2676 66.3284 22.2684C66.3284 22.2691 66.3284 22.2698 66.3284 22.2705C66.3284 22.2712 66.3284 22.2719 66.3284 22.2726C66.3284 22.2733 66.3284 22.274 66.3284 22.2747C66.3284 22.2754 66.3284 22.2761 66.3284 22.2768C66.3284 22.2775 66.3284 22.2782 66.3284 22.2789C66.3284 22.2796 66.3284 22.2803 66.3284 22.2811C66.3284 22.2818 66.3284 22.2825 66.3284 22.2832C66.3284 22.2839 66.3284 22.2846 66.3284 22.2853C66.3284 22.286 66.3284 22.2867 66.3284 22.2874C66.3284 22.2881 66.3284 22.2889 66.3284 22.2896C66.3284 22.2903 66.3284 22.291 66.3284 22.2917C66.3284 22.2924 66.3284 22.2931 66.3284 22.2938C66.3284 22.2945 66.3284 22.2953 66.3284 22.296C66.3284 22.2967 66.3284 22.2974 66.3284 22.2981C66.3284 22.2988 66.3284 22.2995 66.3284 22.3002C66.3284 22.301 66.3284 22.3017 66.3284 22.3024C66.3284 22.3031 66.3284 22.3038 66.3284 22.3045C66.3284 22.3052 66.3284 22.306 66.3284 22.3067C66.3284 22.3074 66.3284 22.3081 66.3284 22.3088C66.3284 22.3095 66.3284 22.3103 66.3284 22.311C66.3284 22.3117 66.3284 22.3124 66.3284 22.3131C66.3284 22.3138 66.3284 22.3146 66.3284 22.3153C66.3284 22.316 66.3284 22.3167 66.3284 22.3174C66.3284 22.3182 66.3284 22.3189 66.3284 22.3196C66.3284 22.3203 66.3284 22.321 66.3284 22.3218C66.3284 22.3225 66.3284 22.3232 66.3284 22.3239C66.3284 22.3246 66.3284 22.3254 66.3284 22.3261C66.3284 22.3268 66.3284 22.3275 66.3284 22.3283C66.3284 22.329 66.3284 22.3297 66.3284 22.3304C66.3284 22.3311 66.3284 22.3319 66.3284 22.3326C66.3284 22.3333 66.3284 22.334 66.3284 22.3348C66.3284 22.3355 66.3284 22.3362 66.3284 22.3369C66.3284 22.3377 66.3284 22.3384 66.3284 22.3391C66.3284 22.3398 66.3284 22.3406 66.3284 22.3413C66.3284 22.342 66.3284 22.3427 66.3284 22.3435C66.3284 22.3442 66.3284 22.3449 66.3284 22.3457C66.3284 22.3464 66.3284 22.3471 66.3284 22.3478C66.3284 22.3486 66.3284 22.3493 66.3284 22.35C66.3284 22.3508 66.3284 22.3515 66.3284 22.3522C66.3284 22.3529 66.3284 22.3537 66.3284 22.3544C66.3284 22.3551 66.3284 22.3559 66.3284 22.3566C66.3284 22.3573 66.3284 22.3581 66.3284 22.3588C66.3284 22.3595 66.3284 22.3603 66.3284 22.361C66.3284 22.3617 66.3284 22.3625 66.3284 22.3632C66.3284 22.3639 66.3284 22.3647 66.3284 22.3654C66.3284 22.3661 66.3284 22.3669 66.3284 22.3676C66.3284 22.3683 66.3284 22.3691 66.3284 22.3698C66.3284 22.3705 66.3284 22.3713 66.3284 22.372C66.3284 22.3727 66.3284 22.3735 66.3284 22.3742C66.3284 22.3749 66.3284 22.3757 66.3284 22.3764C66.3284 22.3772 66.3284 22.3779 66.3284 22.3786C66.3284 22.3794 66.3284 22.3801 66.3284 22.3808C66.3284 22.3816 66.3284 22.3823 66.3284 22.3831C66.3284 22.3838 66.3284 22.3845 66.3284 22.3853C66.3284 22.386 66.3284 22.3868 66.3284 22.3875C66.3284 22.3882 66.3284 22.389 66.3284 22.3897C66.3284 22.3905 66.3284 22.3912 66.3284 22.3919C66.3284 22.3927 66.3284 22.3934 66.3284 22.3942C66.3284 22.3949 66.3284 22.3957 66.3284 22.3964C66.3284 22.3971 66.3284 22.3979 66.3284 22.3986C66.3284 22.3994 66.3284 22.4001 66.3284 22.4009C66.3284 22.4016 66.3284 22.4024 66.3284 22.4031C66.3284 22.4038 66.3284 22.4046 66.3284 22.4053C66.3284 22.4061 66.3284 22.4068 66.3284 22.4076C66.3284 22.4083 66.3284 22.4091 66.3284 22.4098C66.3284 22.4106 66.3284 22.4113 66.3284 22.4121C66.3284 22.4128 66.3284 22.4136 66.3284 22.4143C66.3284 22.4151 66.3284 22.4158 66.3284 22.4166C66.3284 22.4173 66.3284 22.4181 66.3284 22.4188C66.3284 22.4196 66.3284 22.4203 66.3284 22.4211C66.3284 22.4218 66.3284 22.4226 66.3284 22.4233C66.3284 22.4241 66.3284 22.4248 66.3284 22.4256C66.3284 22.4263 66.3284 22.4271 66.3284 22.4278C66.3284 22.4286 66.3284 22.4293 66.3284 22.4301C66.3284 22.4308 66.3284 22.4316 66.3284 22.4323C66.3284 22.4331 66.3284 22.4338 66.3284 22.4346C66.3284 22.4354 66.3284 22.4361 66.3284 22.4369C66.3284 22.4376 66.3284 22.4384 66.3284 22.4391C66.3284 22.4399 66.3284 22.4406 66.3284 22.4414C66.3284 22.4422 66.3284 22.4429 66.3284 22.4437C66.3284 22.4444 66.3284 22.4452 66.3284 22.4459C66.3284 22.4467 66.3284 22.4475 66.3284 22.4482C66.3284 22.449 66.3284 22.4497 66.3284 22.4505C66.3284 22.4513 66.3284 22.452 66.3284 22.4528C66.3284 22.4535 66.3284 22.4543 66.3284 22.4551C66.3284 22.4558 66.3284 22.4566 66.3284 22.4573C66.3284 22.4581 66.3284 22.4589 66.3284 22.4596C66.3284 22.4604 66.3284 22.4611 66.3284 22.4619C66.3284 22.4627 66.3284 22.4634 66.3284 22.4642C66.3284 22.465 66.3284 22.4657 66.3284 22.4665C66.3284 22.4672 66.3284 22.468 66.3284 22.4688C66.3284 22.4695 66.3284 22.4703 66.3284 22.4711C66.3284 22.4718 66.3284 22.4726 66.3284 22.4734C66.3284 22.4741 66.3284 22.4749 66.3284 22.4757C66.3284 22.4764 66.3284 22.4772 66.3284 22.478C66.3284 22.4787 66.3284 22.4795 66.3284 22.4803C66.3284 22.481 66.3284 22.4818 66.3284 22.4826C66.3284 22.4833 66.3284 22.4841 66.3284 22.4849C66.3284 22.4857 66.3284 22.4864 66.3284 22.4872C66.3284 22.488 66.3284 22.4887 66.3284 22.4895C66.3284 22.4903 66.3284 22.491 66.3284 22.4918C66.3284 22.4926 66.3284 22.4934 66.3284 22.4941C66.3284 22.4949 66.3284 22.4957 66.3284 22.4964C66.3284 22.4972 66.3284 22.498 66.3284 22.4988C66.3284 22.4995 66.3284 22.5003 66.3284 22.5011C66.3284 22.5019 66.3284 22.5026 66.3284 22.5034C66.3284 22.5042 66.3284 22.505 66.3284 22.5057C66.3284 22.5065 66.3284 22.5073 66.3284 22.5081C66.3284 22.5088 66.3284 22.5096 66.3284 22.5104C66.3284 22.5112 66.3284 22.5119 66.3284 22.5127C66.3284 22.5135 66.3284 22.5143 66.3284 22.5151C66.3284 22.5158 66.3284 22.5166 66.3284 22.5174C66.3284 22.5182 66.3284 22.5189 66.3284 22.5197C66.3284 22.5205 66.3284 22.5213 66.3284 22.5221C66.3284 22.5228 66.3284 22.5236 66.3284 22.5244C66.3284 22.5252 66.3284 22.526 66.3284 22.5267C66.3284 22.5275 66.3284 22.5283 66.3284 22.5291C66.3284 22.5299 66.3284 22.5307 66.3284 22.5314C66.3284 22.5322 66.3284 22.533 66.3284 22.5338C66.3284 22.5346 66.3284 22.5354 66.3284 22.5361C66.3284 22.5369 66.3284 22.5377 66.3284 22.5385C66.3284 22.5393 66.3284 22.5401 66.3284 22.5408C66.3284 22.5416 66.3284 22.5424 66.3284 22.5432C66.3284 22.544 66.3284 22.5448 66.3284 22.5456C66.3284 22.5464 66.3284 22.5471 66.3284 22.5479C66.3284 22.5487 66.3284 22.5495 66.3284 22.5503C66.3284 22.5511 66.3284 22.5519 66.3284 22.5527C66.3284 22.5534 66.3284 22.5542 66.3284 22.555C66.3284 22.5558 66.3284 22.5566 66.3284 22.5574C66.3284 22.5582 66.3284 22.559 66.3284 22.5598C66.3284 22.5605 66.3284 22.5613 66.3284 22.5621C66.3284 22.5629 66.3284 22.5637 66.3284 22.5645C66.3284 22.5653 66.3284 22.5661 66.3284 22.5669C66.3284 22.5677 66.3284 22.5685 66.3284 22.5693C66.3284 22.5701 66.3284 22.5709 66.3284 22.5716C66.3284 22.5724 66.3284 22.5732 66.3284 22.574C66.3284 22.5748 66.3284 22.5756 66.3284 22.5764C66.3284 22.5772 66.3284 22.578 66.3284 22.5788C66.3284 22.5796 66.3284 22.5804 66.3284 22.5812C66.3284 22.582 66.3284 22.5828 66.3284 22.5836C66.3284 22.5844 66.3284 22.5852 66.3284 22.586C66.3284 22.5868 66.3284 22.5876 66.3284 22.5884C66.3284 22.5892 66.3284 22.59 66.3284 22.5908C66.3284 22.5916 66.3284 22.5924 66.3284 22.5932C66.3284 22.594 66.3284 22.5948 66.3284 22.5956C66.3284 22.5964 66.3284 22.5972 66.3284 22.598C66.3284 22.5988 66.3284 22.5996 66.3284 22.6004C66.3284 22.6012 66.3284 22.602 66.3284 22.6028C66.3284 22.6036 66.3284 22.6044 66.3284 22.6052C66.3284 22.606 66.3284 22.6068 66.3284 22.6076C66.3284 22.6084 66.3284 22.6092 66.3284 22.61C66.3284 22.6108 66.3284 22.6116 66.3284 22.6124C66.3284 22.6132 66.3284 22.614 66.3284 22.6148C66.3284 22.6157 66.3284 22.6165 66.3284 22.6173C66.3284 22.6181 66.3284 22.6189 66.3284 22.6197C66.3284 22.6205 66.3284 22.6213 66.3284 22.6221C66.3284 22.6229 66.3284 22.6237 66.3284 22.6245C66.3284 22.6253 66.3284 22.6262 66.3284 22.627C66.3284 22.6278 66.3284 22.6286 66.3284 22.6294C66.3284 22.6302 66.3284 22.631 66.3284 22.6318C66.3284 22.6326 66.3284 22.6334 66.3284 22.6343C66.3284 22.6351 66.3284 22.6359 66.3284 22.6367C66.3284 22.6375 66.3284 22.6383 66.3284 22.6391C66.3284 22.6399 66.3284 22.6408 66.3284 22.6416C66.3284 22.6424 66.3284 22.6432 66.3284 22.644C66.3284 22.6448 66.3284 22.6456 66.3284 22.6465C66.3284 22.6473 66.3284 22.6481 66.3284 22.6489C66.3284 22.6497 66.3284 22.6505 66.3284 22.6513C66.3284 22.6522 66.3284 22.653 66.3284 22.6538C66.3284 22.6546 66.3284 22.6554 66.3284 22.6562C66.3284 22.6571 66.3284 22.6579 66.3284 22.6587C66.3284 22.6595 66.3284 22.6603 66.3284 22.6612C66.3284 22.662 66.3284 22.6628 66.3284 22.6636C66.3284 22.6644 66.3284 22.6652 66.3284 22.6661C66.3284 22.6669 66.3284 22.6677 66.3284 22.6685C66.3284 22.6693 66.3284 22.6702 66.3284 22.671C66.3284 22.6718 66.3284 22.6726 66.3284 22.6735C66.3284 22.6743 66.3284 22.6751 66.3284 22.6759C66.3284 22.6767 66.3284 22.6776 66.3284 22.6784C66.3284 22.6792 66.3284 22.68 66.3284 22.6809C66.3284 22.6817 66.3284 22.6825 66.3284 22.6833C66.3284 22.6842 66.3284 22.685 66.3284 22.6858C66.3284 22.6866 66.3284 22.6875 66.3284 22.6883C66.3284 22.6891 66.3284 22.6899 66.3284 22.6908C66.3284 22.6916 66.3284 22.6924 66.3284 22.6933C66.3284 22.6941 66.3284 22.6949 66.3284 22.6957C66.3284 22.6966 66.3284 22.6974 66.3284 22.6982C66.3284 22.699 66.3284 22.6999 66.3284 22.7007H68.3284ZM68.3281 21.7159C68.3344 21.4739 68.3808 20.4548 68.4688 18.6337L66.4711 18.5372C66.3839 20.3426 66.3359 21.3929 66.3288 21.6633L68.3281 21.7159ZM67.47 17.5854H67.3891V19.5854H67.47V17.5854ZM66.4395 18.272L63.0017 28.6865L64.9009 29.3135L68.3387 18.8989L66.4395 18.272ZM63.9513 28H61.3729V30H63.9513V28ZM62.3288 28.7064L59.1236 18.2716L57.2117 18.8588L60.417 29.2936L62.3288 28.7064ZM58.1677 17.5652H58.0868V19.5652H58.1677V17.5652ZM57.0881 18.6175C57.2031 20.8151 57.2587 22.2028 57.2587 22.8119H59.2587C59.2587 22.1403 59.1996 20.6968 59.0854 18.513L57.0881 18.6175ZM57.2587 22.8119V29H59.2587V22.8119H57.2587ZM58.2587 28H55.741V30H58.2587V28ZM56.741 29V15.6936H54.741V29H56.741ZM55.741 16.6936H59.5731V14.6936H55.741V16.6936ZM58.618 15.9899L61.7727 26.1617L63.6829 25.5693L60.5282 15.3974L58.618 15.9899ZM62.7278 26.8655H62.7784V24.8655H62.7278V26.8655ZM63.7286 26.1772L67.0653 16.0053L65.1649 15.3819L61.8282 25.5538L63.7286 26.1772ZM66.1151 16.6936H69.9573V14.6936H66.1151V16.6936ZM68.9573 15.6936V29H70.9573V15.6936H68.9573ZM69.9573 28H67.3284V30H69.9573V28ZM68.3284 29V22.7007H66.3284V29H68.3284ZM80.9733 26.6744H81.9733V25.6744H80.9733V26.6744ZM80.9733 29V30H81.9733V29H80.9733ZM73.3191 29H72.3191V30H73.3191V29ZM73.3191 15.6936V14.6936H72.3191V15.6936H73.3191ZM80.9733 15.6936H81.9733V14.6936H80.9733V15.6936ZM80.9733 18.0091V19.0091H81.9733V18.0091H80.9733ZM76.1401 18.0091V17.0091H75.1401V18.0091H76.1401ZM76.1401 20.9312H75.1401V21.9312H76.1401V20.9312ZM80.6396 20.9312H81.6396V19.9312H80.6396V20.9312ZM80.6396 23.2366V24.2366H81.6396V23.2366H80.6396ZM76.1401 23.2366V22.2366H75.1401V23.2366H76.1401ZM76.1401 26.6744H75.1401V27.6744H76.1401V26.6744ZM79.9733 26.6744V29H81.9733V26.6744H79.9733ZM80.9733 28H73.3191V30H80.9733V28ZM74.3191 29V15.6936H72.3191V29H74.3191ZM73.3191 16.6936H80.9733V14.6936H73.3191V16.6936ZM79.9733 15.6936V18.0091H81.9733V15.6936H79.9733ZM80.9733 17.0091H76.1401V19.0091H80.9733V17.0091ZM75.1401 18.0091V20.9312H77.1401V18.0091H75.1401ZM76.1401 21.9312H80.6396V19.9312H76.1401V21.9312ZM79.6396 20.9312V23.2366H81.6396V20.9312H79.6396ZM80.6396 22.2366H76.1401V24.2366H80.6396V22.2366ZM75.1401 23.2366V26.6744H77.1401V23.2366H75.1401ZM76.1401 27.6744H80.9733V25.6744H76.1401V27.6744Z" fill="#9624A9" mask="url(#path-1-outside-1_1_2)"/>
</g>
<defs>
<clipPath id="clip0_1_2">
<rect width="100" height="50" fill="white"/>
</clipPath>
</defs>
</svg>
